<?xml version="1.0" encoding="UTF-8"?>
<svg id="Layer_1" data-name="Layer 1" xmlns="http://www.w3.org/2000/svg" viewBox="0 0 200 200">
  <defs>
    <style>
      .cls-1 {
        fill: #fff;
      }
    </style>
  </defs>
  <rect width="200" height="200" rx="40" ry="40"/>
  <path class="cls-1" d="m69.86,52.8h11.69v10.98h.29c1.8-3.9,4.59-6.99,8.34-9.27,3.75-2.28,8.39-3.42,13.9-3.42,6.46,0,12.07,1.59,16.83,4.78,4.75,3.19,8.41,7.54,10.98,13.05,2.57,5.51,3.85,11.79,3.85,18.82s-1.28,13.19-3.85,18.75c-2.57,5.56-6.23,9.96-10.98,13.19-4.75,3.23-10.32,4.85-16.68,4.85-5.32,0-9.96-1.19-13.9-3.56-3.95-2.38-6.77-5.51-8.48-9.41h-.29v37.36h-11.69V52.8Zm44.42,58.18c3.18-2.19,5.58-5.28,7.2-9.27,1.62-3.99,2.42-8.65,2.42-13.97s-.83-9.96-2.5-13.9c-1.66-3.94-4.09-7.01-7.27-9.2-3.19-2.19-7.11-3.28-11.76-3.28s-8.53,1.12-11.62,3.35c-3.09,2.23-5.4,5.32-6.92,9.27-1.52,3.95-2.28,8.53-2.28,13.76s.78,9.7,2.35,13.69c1.57,3.99,3.92,7.13,7.06,9.41,3.14,2.28,7.03,3.42,11.69,3.42s8.44-1.09,11.62-3.28Z"/>
</svg>